<?xml version="1.0" encoding="utf-8"?>
<!-- Generator: Adobe Illustrator 27.3.1, SVG Export Plug-In . SVG Version: 6.00 Build 0)  -->
<svg version="1.1" id="Layer_1" xmlns="http://www.w3.org/2000/svg" xmlns:xlink="http://www.w3.org/1999/xlink" x="0px" y="0px"
	 viewBox="0 0 100 100" style="enable-background:new 0 0 100 100;" xml:space="preserve">
<style type="text/css">
	.st0{fill:#002878;}
	.st1{fill:#FFFFFF;}
</style>
<g>
	<path class="st1" d="M88.84,31.54H11.16c-4.73,0-8.57-3.84-8.57-8.57v0c0-4.73,3.84-8.57,8.57-8.57h77.69
		c4.73,0,8.57,3.84,8.57,8.57v0C97.41,27.7,93.58,31.54,88.84,31.54z"/>
	<path class="st1" d="M88.84,58.57H11.16c-4.73,0-8.57-3.84-8.57-8.57v0c0-4.73,3.84-8.57,8.57-8.57h77.69
		c4.73,0,8.57,3.84,8.57,8.57v0C97.41,54.73,93.58,58.57,88.84,58.57z"/>
	<path class="st1" d="M88.84,85.6H11.16c-4.73,0-8.57-3.84-8.57-8.57v0c0-4.73,3.84-8.57,8.57-8.57h77.69
		c4.73,0,8.57,3.84,8.57,8.57v0C97.41,81.76,93.58,85.6,88.84,85.6z"/>
</g>
</svg>
